<svg width="110" height="26" viewBox="0 0 110 26" fill="none" xmlns="http://www.w3.org/2000/svg">
<path d="M3.81 25.29C3.03 25.29 2.42 24.98 1.98 24.36C1.56 23.76 1.26 22.97 1.08 21.99C0.92 21.01 0.82 19.96 0.78 18.84C0.76 17.72 0.75 16.66 0.75 15.66C0.75 14.78 0.77 13.84 0.81 12.84C0.87 11.82 0.99 10.86 1.17 9.96C1.37 9.04 1.7 8.29 2.16 7.71C2.62 7.13 3.25 6.84 4.05 6.84C4.67 6.84 5.15 6.96 5.49 7.2C5.83 7.44 6.09 7.72 6.27 8.04C6.73 7.7 7.3 7.43 7.98 7.23C8.66 7.01 9.39 6.9 10.17 6.9C11.47 6.9 12.65 7.22 13.71 7.86C14.79 8.5 15.65 9.36 16.29 10.44C16.93 11.5 17.25 12.68 17.25 13.98C17.25 15.28 16.93 16.47 16.29 17.55C15.65 18.63 14.79 19.49 13.71 20.13C12.65 20.77 11.47 21.09 10.17 21.09C9.37 21.09 8.63 20.99 7.95 20.79C7.27 20.57 6.7 20.28 6.24 19.92C6.24 20.92 6.2 21.83 6.12 22.65C6.06 23.47 5.86 24.11 5.52 24.57C5.18 25.05 4.61 25.29 3.81 25.29ZM10.02 16.11C10.54 16.11 10.99 15.92 11.37 15.54C11.77 15.14 11.97 14.68 11.97 14.16C11.97 13.64 11.77 13.19 11.37 12.81C10.99 12.41 10.54 12.21 10.02 12.21C9.5 12.21 9.04 12.41 8.64 12.81C8.26 13.19 8.07 13.64 8.07 14.16C8.07 14.68 8.26 15.14 8.64 15.54C9.04 15.92 9.5 16.11 10.02 16.11ZM23.4123 21.03C22.2323 21.03 21.2123 20.72 20.3523 20.1C19.4923 19.48 18.8223 18.62 18.3423 17.52C17.8823 16.4 17.6523 15.11 17.6523 13.65C17.6523 12.93 17.7123 12.18 17.8323 11.4C17.9723 10.6 18.1723 9.86 18.4323 9.18C18.7123 8.5 19.0723 7.95 19.5123 7.53C19.9723 7.09 20.5223 6.87 21.1623 6.87C21.9223 6.87 22.4923 7.12 22.8723 7.62C23.2723 8.1 23.4723 8.74 23.4723 9.54C23.4723 9.9 23.4123 10.32 23.2923 10.8C23.1923 11.28 23.0823 11.77 22.9623 12.27C22.8623 12.75 22.8123 13.19 22.8123 13.59C22.8123 14.23 22.8723 14.71 22.9923 15.03C23.1323 15.35 23.4323 15.51 23.8923 15.51C24.3723 15.51 24.6823 15.26 24.8223 14.76C24.9823 14.24 25.0523 13.58 25.0323 12.78C25.0323 11.96 25.0323 11.12 25.0323 10.26C25.0323 9.62 25.2023 9.05 25.5423 8.55C25.9023 8.03 26.4823 7.77 27.2823 7.77C28.1023 7.77 28.6923 8.03 29.0523 8.55C29.4323 9.05 29.6223 9.62 29.6223 10.26C29.6223 11.12 29.6023 11.96 29.5623 12.78C29.5423 13.58 29.6023 14.24 29.7423 14.76C29.9023 15.26 30.2523 15.51 30.7923 15.51C31.7323 15.51 32.2023 14.87 32.2023 13.59C32.2023 13.19 32.1223 12.75 31.9623 12.27C31.8223 11.77 31.6723 11.28 31.5123 10.8C31.3523 10.3 31.2723 9.86 31.2723 9.48C31.2723 7.76 31.9923 6.9 33.4323 6.9C34.0723 6.9 34.6123 7.11 35.0523 7.53C35.5123 7.95 35.8723 8.5 36.1323 9.18C36.4123 9.86 36.6123 10.59 36.7323 11.37C36.8723 12.15 36.9423 12.9 36.9423 13.62C36.9423 15.84 36.4223 17.62 35.3823 18.96C34.3623 20.28 32.9623 20.94 31.1823 20.94C30.3823 20.94 29.6423 20.79 28.9623 20.49C28.2823 20.17 27.7223 19.76 27.2823 19.26C26.8423 19.76 26.2923 20.18 25.6323 20.52C24.9723 20.86 24.2323 21.03 23.4123 21.03ZM44.8972 21C43.3972 21 42.0772 20.71 40.9372 20.13C39.8172 19.53 38.9372 18.72 38.2972 17.7C37.6772 16.66 37.3672 15.47 37.3672 14.13C37.3672 12.83 37.6772 11.63 38.2972 10.53C38.9372 9.43 39.8072 8.55 40.9072 7.89C42.0272 7.23 43.3072 6.9 44.7472 6.9C46.0872 6.9 47.2372 7.17 48.1972 7.71C49.1572 8.25 49.8872 8.94 50.3872 9.78C50.9072 10.6 51.1672 11.47 51.1672 12.39C51.1672 13.31 50.9572 14.07 50.5372 14.67C50.1172 15.25 49.5672 15.7 48.8872 16.02C48.2272 16.32 47.5172 16.52 46.7572 16.62C45.9972 16.72 45.2672 16.74 44.5672 16.68C43.8672 16.6 43.2772 16.48 42.7972 16.32C43.1572 16.9 43.6072 17.3 44.1472 17.52C44.7072 17.72 45.2872 17.81 45.8872 17.79C46.5072 17.75 47.0672 17.68 47.5672 17.58C48.1872 17.44 48.6972 17.47 49.0972 17.67C49.4972 17.87 49.7072 18.19 49.7272 18.63C49.7472 18.99 49.6172 19.35 49.3372 19.71C49.0772 20.07 48.5972 20.38 47.8972 20.64C47.1972 20.88 46.1972 21 44.8972 21ZM42.8872 12.66C43.0872 12.98 43.3772 13.21 43.7572 13.35C44.1372 13.47 44.5172 13.51 44.8972 13.47C45.2972 13.43 45.6272 13.32 45.8872 13.14C46.1672 12.96 46.3072 12.71 46.3072 12.39C46.3072 12.05 46.1672 11.75 45.8872 11.49C45.6272 11.21 45.2072 11.07 44.6272 11.07C44.0672 11.07 43.6372 11.25 43.3372 11.61C43.0372 11.95 42.8872 12.3 42.8872 12.66ZM58.7442 20.94C57.9842 20.94 57.3742 20.67 56.9142 20.13C56.4542 19.59 56.1042 18.85 55.8642 17.91C55.6442 16.95 55.4942 15.84 55.4142 14.58C54.1942 14.48 53.2442 14.24 52.5642 13.86C51.9042 13.48 51.5742 12.82 51.5742 11.88C51.5742 10.94 51.9042 10.28 52.5642 9.9C53.2442 9.5 54.1942 9.24 55.4142 9.12C55.5142 7.34 55.7842 5.76 56.2242 4.38C56.6842 3 57.4242 1.93 58.4442 1.17C59.4642 0.389999 60.8942 -1.43051e-06 62.7342 -1.43051e-06C63.7542 -1.43051e-06 64.6442 0.239998 65.4042 0.719998C66.1842 1.2 66.5742 1.95 66.5742 2.97C66.5742 4.03 66.2342 4.81 65.5542 5.31C64.8942 5.79 64.0942 6.12 63.1542 6.3C62.4142 6.44 61.8942 6.77 61.5942 7.29C61.2942 7.79 61.1042 8.38 61.0242 9.06C62.8242 9.1 64.1942 9.29 65.1342 9.63C66.0942 9.97 66.5742 10.72 66.5742 11.88C66.5742 12.64 66.3542 13.22 65.9142 13.62C65.4742 14 64.8342 14.26 63.9942 14.4C63.1742 14.54 62.2042 14.62 61.0842 14.64C61.0842 15.44 61.0942 16.17 61.1142 16.83C61.1342 17.47 61.1442 18.06 61.1442 18.6C61.1442 19.24 61.0142 19.73 60.7542 20.07C60.4942 20.41 60.1742 20.64 59.7942 20.76C59.4342 20.88 59.0842 20.94 58.7442 20.94ZM71.9137 21C70.9337 21 70.0337 20.85 69.2137 20.55C68.4137 20.25 67.7737 19.8 67.2937 19.2C66.8137 18.58 66.5737 17.8 66.5737 16.86C66.5737 16.06 66.8137 15.38 67.2937 14.82C67.7737 14.26 68.4137 13.83 69.2137 13.53C70.0337 13.23 70.9337 13.08 71.9137 13.08C72.4937 13.08 73.0237 13.13 73.5037 13.23C73.9837 13.31 74.3137 13.41 74.4937 13.53C74.4937 13.07 74.3037 12.67 73.9237 12.33C73.5437 11.97 72.8837 11.79 71.9437 11.79C71.5037 11.79 71.1537 11.83 70.8937 11.91C70.6537 11.97 70.4337 12.05 70.2337 12.15C70.0337 12.25 69.8037 12.34 69.5437 12.42C69.3037 12.48 68.9737 12.51 68.5537 12.51C67.9337 12.51 67.4337 12.35 67.0537 12.03C66.6937 11.69 66.5137 11.18 66.5137 10.5C66.5137 9.88 66.6837 9.35 67.0237 8.91C67.3837 8.45 67.8437 8.07 68.4037 7.77C68.9637 7.47 69.5637 7.25 70.2037 7.11C70.8637 6.97 71.4937 6.9 72.0937 6.9C73.8737 6.9 75.3237 7.23 76.4437 7.89C77.5637 8.53 78.3937 9.37 78.9337 10.41C79.4737 11.45 79.7437 12.58 79.7437 13.8C79.7437 14.48 79.6837 15.11 79.5637 15.69C79.4637 16.27 79.3237 16.72 79.1437 17.04C79.4237 17.28 79.6337 17.56 79.7737 17.88C79.9337 18.2 80.0137 18.53 80.0137 18.87C80.0137 19.43 79.8237 19.93 79.4437 20.37C79.0837 20.79 78.5637 21 77.8837 21C77.3637 21 76.9537 20.92 76.6537 20.76C76.3537 20.6 76.0537 20.39 75.7537 20.13C75.2737 20.41 74.7437 20.63 74.1637 20.79C73.5837 20.93 72.8337 21 71.9137 21ZM72.5137 17.97C72.9737 17.97 73.3137 17.88 73.5337 17.7C73.7737 17.5 73.8937 17.28 73.8937 17.04C73.8937 16.8 73.7737 16.59 73.5337 16.41C73.3137 16.21 72.9737 16.11 72.5137 16.11C72.0737 16.11 71.7337 16.21 71.4937 16.41C71.2537 16.59 71.1337 16.8 71.1337 17.04C71.1337 17.28 71.2537 17.5 71.4937 17.7C71.7337 17.88 72.0737 17.97 72.5137 17.97ZM87.7777 20.97C86.4977 20.95 85.2977 20.64 84.1777 20.04C83.0577 19.42 82.1477 18.57 81.4477 17.49C80.7677 16.41 80.4277 15.19 80.4277 13.83C80.4277 12.37 80.7677 11.13 81.4477 10.11C82.1477 9.07 83.0477 8.28 84.1477 7.74C85.2677 7.18 86.4477 6.9 87.6877 6.9C88.9677 6.9 90.0877 7.15 91.0477 7.65C92.0077 8.13 92.7477 8.76 93.2677 9.54C93.8077 10.3 94.0777 11.09 94.0777 11.91C94.0777 12.59 93.8677 13.13 93.4477 13.53C93.0477 13.91 92.4077 14.1 91.5277 14.1C91.0477 14.1 90.6777 14.01 90.4177 13.83C90.1777 13.63 89.9677 13.41 89.7877 13.17C89.6277 12.93 89.4277 12.72 89.1877 12.54C88.9677 12.34 88.6377 12.24 88.1977 12.24C87.6777 12.24 87.2177 12.42 86.8177 12.78C86.4377 13.14 86.2477 13.62 86.2477 14.22C86.2477 14.84 86.4377 15.33 86.8177 15.69C87.1977 16.03 87.6577 16.2 88.1977 16.2C88.6177 16.2 88.9377 16.14 89.1577 16.02C89.3777 15.88 89.5677 15.72 89.7277 15.54C89.9077 15.36 90.1277 15.21 90.3877 15.09C90.6477 14.95 91.0277 14.88 91.5277 14.88C92.4077 14.88 93.0477 15.12 93.4477 15.6C93.8677 16.06 94.0777 16.55 94.0777 17.07C94.0777 17.73 93.8177 18.36 93.2977 18.96C92.7777 19.56 92.0477 20.05 91.1077 20.43C90.1677 20.79 89.0577 20.97 87.7777 20.97ZM103.848 21C103.148 21 102.438 20.86 101.718 20.58C100.998 20.3 100.348 19.89 99.7683 19.35C99.2083 18.81 98.7983 18.16 98.5383 17.4C98.3583 16.9 98.2283 16.28 98.1483 15.54C98.0683 14.8 98.0083 14.01 97.9683 13.17C97.9483 12.33 97.9383 11.51 97.9383 10.71C97.1583 10.69 96.4083 10.62 95.6883 10.5C94.9883 10.38 94.4083 10.16 93.9483 9.84C93.5083 9.5 93.2883 9.01 93.2883 8.37C93.2883 7.59 93.4983 7.01 93.9183 6.63C94.3383 6.23 94.8983 5.97 95.5983 5.85C96.3183 5.71 97.0983 5.63 97.9383 5.61C97.9583 4.99 98.0083 4.36 98.0883 3.72C98.1883 3.06 98.3483 2.45 98.5683 1.89C98.7883 1.33 99.0983 0.879999 99.4983 0.539999C99.8983 0.179999 100.418 -1.43051e-06 101.058 -1.43051e-06C101.918 -1.43051e-06 102.538 0.269999 102.918 0.809999C103.318 1.35 103.568 2.05 103.668 2.91C103.768 3.77 103.808 4.67 103.788 5.61C104.828 5.59 105.748 5.63 106.548 5.73C107.348 5.83 107.978 6.05 108.438 6.39C108.898 6.73 109.128 7.27 109.128 8.01C109.128 8.77 108.868 9.34 108.348 9.72C107.828 10.1 107.148 10.36 106.308 10.5C105.468 10.62 104.578 10.69 103.638 10.71C103.638 11.09 103.628 11.49 103.608 11.91C103.608 12.31 103.608 12.72 103.608 13.14C103.608 14.28 103.688 15.09 103.848 15.57C103.968 15.93 104.128 16.16 104.328 16.26C104.548 16.36 104.818 16.42 105.138 16.44C105.458 16.44 105.848 16.5 106.308 16.62C106.768 16.72 107.128 16.97 107.388 17.37C107.648 17.75 107.778 18.24 107.778 18.84C107.778 19.52 107.418 20.05 106.698 20.43C105.998 20.81 105.048 21 103.848 21Z" fill="url(#paint0_linear_53_12)"/>
<defs>
<linearGradient id="paint0_linear_53_12" x1="-2.60567e-07" y1="4.06" x2="116.04" y2="20.8881" gradientUnits="userSpaceOnUse">
<stop stop-color="#292BB2"/>
<stop offset="0.108086" stop-color="#782DAC"/>
<stop offset="0.254851" stop-color="#7F2D9B"/>
<stop offset="0.347414" stop-color="#A91F96"/>
<stop offset="0.456654" stop-color="#CB1F8B"/>
<stop offset="0.746015" stop-color="#F42F81"/>
<stop offset="1" stop-color="#F7D457"/>
</linearGradient>
</defs>
</svg>
